<svg width="92" height="27" viewBox="0 0 92 27" fill="none" xmlns="http://www.w3.org/2000/svg">
<path d="M37.0429 15.0146V3.73291H40.5324V15.2182C40.5324 17.7005 39.9941 19.4885 38.9187 20.5834C37.8422 21.6784 36.0736 22.2264 33.612 22.2264C32.9145 22.2264 32.2885 22.1971 31.7362 22.1397C31.1839 22.0812 30.7041 21.9935 30.2969 21.8776V18.6784C30.7041 18.7759 31.1405 18.8441 31.6062 18.882C32.0708 18.9221 32.6037 18.9405 33.2048 18.9405C34.7177 18.9405 35.7347 18.6644 36.2578 18.112C36.7819 17.5597 37.0429 16.5276 37.0429 15.0146ZM47.22 14.7244C47.22 16.5081 47.4431 17.681 47.8882 18.2431C48.3355 18.8051 49.2842 19.0856 50.7387 19.0856C52.1542 19.0856 53.0888 18.8008 53.5447 18.2279C53.9996 17.6572 54.2281 16.4886 54.2281 14.7244C54.2281 12.9212 54.0094 11.7385 53.574 11.1764C53.1375 10.6143 52.1931 10.3338 50.7387 10.3338C49.3037 10.3338 48.3582 10.6241 47.9044 11.2057C47.4474 11.7872 47.22 12.9601 47.22 14.7244ZM57.6017 14.7536C57.6017 17.4676 57.0829 19.3911 56.0454 20.525C55.009 21.66 53.2404 22.2264 50.7387 22.2264C48.199 22.2264 46.4164 21.6697 45.3886 20.5542C44.3608 19.4398 43.8475 17.5066 43.8475 14.7536C43.8475 12.0591 44.3706 10.1443 45.4168 9.01041C46.464 7.8765 48.238 7.30901 50.7387 7.30901C53.2588 7.30901 55.0328 7.86676 56.0606 8.98117C57.0873 10.0967 57.6017 12.0201 57.6017 14.7536ZM62.0799 23.7383C62.7958 23.7383 63.3297 23.6072 63.6785 23.3462C64.0272 23.0841 64.3283 22.5361 64.5795 21.7033L58.9381 7.60034H62.7189L66.295 18.3882L69.6978 7.60034H73.3324L67.8361 22.6043C67.2935 24.0772 66.6297 25.1245 65.8445 25.7451C65.0593 26.3656 64.0272 26.6754 62.7471 26.6754C62.3604 26.6754 61.963 26.6559 61.5558 26.6169C61.1486 26.579 60.7901 26.5302 60.4793 26.4718V23.6516C60.6341 23.6906 60.8182 23.7144 61.0327 23.7242C61.2449 23.7339 61.5948 23.7383 62.0799 23.7383ZM79.1482 21.9643H75.7746V7.60034H79.1482V21.9643ZM92.0002 18.8246V21.7033C91.6699 21.8387 91.2096 21.961 90.6194 22.0672C90.0281 22.1722 89.4887 22.2264 89.0046 22.2264C87.1635 22.2264 85.8444 21.8246 85.0506 21.0199C84.2556 20.2163 83.8592 18.8734 83.8592 16.9933V10.4205H81.9391V7.60034H83.9448L84.4105 4.16828H87.2307V7.60034H91.8259V10.4205H87.2307V16.8763C87.2307 17.7297 87.4159 18.3102 87.7841 18.621C88.1512 18.9308 88.8108 19.0856 89.7606 19.0856C90.0909 19.0856 90.4775 19.0618 90.9237 19.0131C91.3699 18.9654 91.7284 18.9015 92.0002 18.8246Z" fill="#ccc"/>
<path d="M0.236096 2.9382C0.239345 2.94145 0.242594 2.9447 0.241511 2.95012C0.28808 3.01943 0.330318 3.08982 0.372555 3.16022C1.8227 5.5136 2.7855 8.19405 3.11798 11.0673C3.19813 11.7182 3.23386 12.381 3.24361 13.0492C3.52628 13.0589 3.82194 13.0643 4.13601 13.0643C5.88615 13.0643 7.06338 12.7438 7.66879 12.1048C8.27527 11.4647 8.57851 10.2702 8.57851 8.52003V3.5057L3.1613 0.379053C2.96744 0.241511 2.75193 0.134293 2.518 0.0768936C2.46493 0.0628146 2.41511 0.0476525 2.36204 0.0400713C2.35338 0.0368225 2.34796 0.0368223 2.34255 0.0368223C2.26241 0.0205771 2.18876 0.00974722 2.1097 0.00324903C2.06963 0.00324903 2.03172 0 1.99274 0C1.85736 0.00108322 1.72307 0.0151622 1.59202 0.0422373C1.56062 0.0465694 1.52921 0.0541504 1.4978 0.0628145C1.4469 0.0736445 1.40141 0.0909726 1.35376 0.106135C1.26171 0.13321 1.17182 0.174365 1.08842 0.215519C1.04619 0.242594 1.00178 0.265337 0.961712 0.286997C0.504682 0.563164 0.155953 1.01695 0.0400713 1.57794C0.0346564 1.61693 0.0259924 1.65484 0.0194942 1.69383C0.011913 1.75989 0.00541498 1.82704 0 1.89527L0.00108301 1.99815C6.93292e-08 2.3393 0.0855579 2.6577 0.236096 2.9382Z" fill="#ccc"/>
<path d="M22.6371 11.6206L14.9867 7.20514L12.6192 5.83838V8.75601C12.6192 11.6281 11.9965 13.6978 10.751 14.966C9.50557 16.2331 7.45868 16.8667 4.6082 16.8667C4.00713 16.8667 3.45263 16.8482 2.94362 16.8103C2.50608 19.2341 1.62126 21.5019 0.372555 23.525C0.329235 23.5954 0.286997 23.6604 0.243677 23.7254C0.241511 23.7286 0.241511 23.7286 0.24476 23.7319C0.0877238 24.0124 0.00216616 24.3373 0 24.6806C0.00216616 24.7174 0.00216602 24.7575 0.00216602 24.7975C0.00866393 24.8603 0.014079 24.9232 0.0249092 24.9849C0.0314071 25.025 0.0346562 25.0618 0.0422373 25.0986C0.0476523 25.1322 0.0563165 25.1636 0.0649805 25.195C0.173281 25.6098 0.406128 25.9629 0.721284 26.2163C0.770019 26.2585 0.820921 26.2921 0.869656 26.3289C0.89998 26.3495 0.931387 26.369 0.962795 26.3885C0.988787 26.4026 1.01695 26.4199 1.04619 26.4318C1.07326 26.448 1.1025 26.4654 1.13066 26.4773C1.1599 26.4946 1.19023 26.5087 1.21947 26.5195C1.24979 26.5282 1.2812 26.5412 1.30936 26.5531C1.34076 26.5618 1.37217 26.5769 1.40358 26.5845C1.47181 26.6072 1.54004 26.6257 1.61152 26.6387C1.63968 26.6451 1.67108 26.6473 1.69924 26.6527C1.79888 26.6679 1.89527 26.6733 1.9949 26.6755C2.03389 26.6755 2.0718 26.6733 2.11187 26.6733C2.14869 26.6701 2.18226 26.6646 2.21909 26.6614C2.23425 26.6592 2.25374 26.656 2.27324 26.6538C2.29598 26.6527 2.31547 26.6451 2.34147 26.6408C2.40645 26.6332 2.46601 26.6127 2.53099 26.5986C2.53749 26.5932 2.54615 26.591 2.55157 26.5899C2.59164 26.5791 2.63171 26.5672 2.66853 26.5531C2.84182 26.4946 3.00427 26.4123 3.14939 26.3073L22.6371 15.0548C23.9562 14.2934 23.9583 12.3863 22.6371 11.6206Z" fill="#ccc"/>
</svg>
