<?xml version="1.0" standalone="no"?>
<!DOCTYPE svg PUBLIC "-//W3C//DTD SVG 20010904//EN"
 "http://www.w3.org/TR/2001/REC-SVG-20010904/DTD/svg10.dtd">
<svg version="1.0" xmlns="http://www.w3.org/2000/svg"
 width="70.000000pt" height="60.000000pt" viewBox="0 0 70.000000 60.000000"
 preserveAspectRatio="xMidYMid meet">

<g transform="translate(0.000000,60.000000) scale(0.100000,-0.100000)"
fill="#000000" stroke="none">
<path d="M0 300 l0 -300 350 0 350 0 0 300 0 300 -350 0 -350 0 0 -300z m279
143 c28 -16 31 -23 31 -69 0 -52 -12 -74 -41 -74 -12 0 -19 12 -24 38 -4 20
-13 51 -22 69 -24 53 -1 68 56 36z m189 -120 c34 -28 32 -30 -112 -117 -143
-87 -159 -86 -127 0 17 44 23 50 56 55 49 8 66 28 72 83 l6 45 38 -22 c22 -12
52 -32 67 -44z"/>
</g>
</svg>
